<mxfile host="Electron" modified="2023-11-05T03:06:47.205Z" agent="Mozilla/5.0 (Windows NT 10.0; Win64; x64) AppleWebKit/537.36 (KHTML, like Gecko) draw.io/22.0.3 Chrome/114.0.5735.289 Electron/25.8.4 Safari/537.36" etag="RJ-eEodN6duq8fmwQQI2" version="22.0.3" type="device">
  <diagram name="Page-1" id="KWu0WDdyVDqa2LVKzFvK">
    <mxGraphModel dx="1098" dy="828" grid="1" gridSize="10" guides="1" tooltips="1" connect="1" arrows="1" fold="1" page="1" pageScale="1" pageWidth="850" pageHeight="1100" math="0" shadow="0">
      <root>
        <mxCell id="0" />
        <mxCell id="1" parent="0" />
        <mxCell id="wWfeh-Bc8hcrG2u39Nag-8" value="" style="rounded=0;whiteSpace=wrap;html=1;" vertex="1" parent="1">
          <mxGeometry width="850" height="90" as="geometry" />
        </mxCell>
        <mxCell id="wWfeh-Bc8hcrG2u39Nag-9" style="edgeStyle=orthogonalEdgeStyle;rounded=0;orthogonalLoop=1;jettySize=auto;html=1;exitX=0.5;exitY=1;exitDx=0;exitDy=0;" edge="1" parent="1" source="wWfeh-Bc8hcrG2u39Nag-8" target="wWfeh-Bc8hcrG2u39Nag-8">
          <mxGeometry relative="1" as="geometry" />
        </mxCell>
        <mxCell id="wWfeh-Bc8hcrG2u39Nag-10" value="" style="verticalLabelPosition=bottom;shadow=0;dashed=0;align=center;html=1;verticalAlign=top;strokeWidth=1;shape=mxgraph.mockup.graphics.simpleIcon;strokeColor=#999999;fontSize=13;fontColor=#0066CC;" vertex="1" parent="1">
          <mxGeometry x="30" y="20" width="50" height="50" as="geometry" />
        </mxCell>
        <mxCell id="wWfeh-Bc8hcrG2u39Nag-11" value="Home" style="text;html=1;strokeColor=none;fillColor=none;align=center;verticalAlign=middle;whiteSpace=wrap;rounded=0;" vertex="1" parent="1">
          <mxGeometry x="385" y="30" width="80" height="30" as="geometry" />
        </mxCell>
        <mxCell id="wWfeh-Bc8hcrG2u39Nag-12" value="Services" style="text;html=1;strokeColor=none;fillColor=none;align=center;verticalAlign=middle;whiteSpace=wrap;rounded=0;" vertex="1" parent="1">
          <mxGeometry x="610" y="30" width="80" height="30" as="geometry" />
        </mxCell>
        <mxCell id="wWfeh-Bc8hcrG2u39Nag-13" value="About Us" style="text;html=1;strokeColor=none;fillColor=none;align=center;verticalAlign=middle;whiteSpace=wrap;rounded=0;" vertex="1" parent="1">
          <mxGeometry x="500" y="30" width="80" height="30" as="geometry" />
        </mxCell>
        <mxCell id="wWfeh-Bc8hcrG2u39Nag-14" value="Contact Us" style="text;html=1;strokeColor=none;fillColor=none;align=center;verticalAlign=middle;whiteSpace=wrap;rounded=0;" vertex="1" parent="1">
          <mxGeometry x="720" y="30" width="80" height="30" as="geometry" />
        </mxCell>
        <mxCell id="wWfeh-Bc8hcrG2u39Nag-15" value="" style="verticalLabelPosition=bottom;shadow=0;dashed=0;align=center;html=1;verticalAlign=top;strokeWidth=1;shape=mxgraph.mockup.graphics.simpleIcon;strokeColor=#999999;fontSize=13;fontColor=#0066CC;" vertex="1" parent="1">
          <mxGeometry y="90" width="850" height="360" as="geometry" />
        </mxCell>
        <mxCell id="wWfeh-Bc8hcrG2u39Nag-16" value="&lt;h1&gt;Heading&lt;/h1&gt;&lt;p&gt;Lorem ipsum dolor sit amet, consectetur adipisicing elit,&lt;/p&gt;" style="text;html=1;strokeColor=none;fillColor=none;spacing=5;spacingTop=-20;whiteSpace=wrap;overflow=hidden;rounded=0;align=center;" vertex="1" parent="1">
          <mxGeometry x="335" y="210" width="180" height="90" as="geometry" />
        </mxCell>
        <mxCell id="wWfeh-Bc8hcrG2u39Nag-17" value="" style="verticalLabelPosition=bottom;shadow=0;dashed=0;align=center;html=1;verticalAlign=top;strokeWidth=1;shape=mxgraph.mockup.graphics.simpleIcon;strokeColor=#999999;fontSize=13;fontColor=#0066CC;" vertex="1" parent="1">
          <mxGeometry x="10" y="500" width="290" height="255" as="geometry" />
        </mxCell>
        <mxCell id="wWfeh-Bc8hcrG2u39Nag-18" value="" style="verticalLabelPosition=bottom;shadow=0;dashed=0;align=center;html=1;verticalAlign=top;strokeWidth=1;shape=mxgraph.mockup.graphics.simpleIcon;strokeColor=#999999;fontSize=13;fontColor=#0066CC;" vertex="1" parent="1">
          <mxGeometry x="330" y="670" width="190" height="140" as="geometry" />
        </mxCell>
        <mxCell id="wWfeh-Bc8hcrG2u39Nag-19" value="" style="verticalLabelPosition=bottom;shadow=0;dashed=0;align=center;html=1;verticalAlign=top;strokeWidth=1;shape=mxgraph.mockup.graphics.simpleIcon;strokeColor=#999999;fontSize=13;fontColor=#0066CC;" vertex="1" parent="1">
          <mxGeometry x="170" y="790" width="130" height="130" as="geometry" />
        </mxCell>
        <mxCell id="wWfeh-Bc8hcrG2u39Nag-20" value="&lt;h1&gt;About Us&lt;/h1&gt;&lt;p&gt;Lorem ipsum dolor sit amet,consectetur adipiscing elit. Sed finibus ante at mauris rhoncus, et convallis nibh venenatis. Vivamus tristique pharetra feugiat. Pellentesque aliquet purus non leo suscipit, pulvinar consequat lectus finibus. Cras in dolor dolor. Nulla tempus, erat at tempor mollis, neque dui laoreet purus, a iaculis augue metus non massa. Sed non tempus magna, ut placerat metus.&lt;/p&gt;" style="text;html=1;strokeColor=none;fillColor=none;spacing=5;spacingTop=-20;whiteSpace=wrap;overflow=hidden;rounded=0;" vertex="1" parent="1">
          <mxGeometry x="540" y="520" width="300" height="290" as="geometry" />
        </mxCell>
        <mxCell id="wWfeh-Bc8hcrG2u39Nag-21" value="&lt;h1&gt;&quot;Lorem ipsum dolor sit amet, consectetur adipisicing elit&quot;&lt;/h1&gt;" style="text;html=1;strokeColor=none;fillColor=none;spacing=5;spacingTop=-20;whiteSpace=wrap;overflow=hidden;rounded=0;fontStyle=2" vertex="1" parent="1">
          <mxGeometry x="450" y="850" width="370" height="80" as="geometry" />
        </mxCell>
        <mxCell id="wWfeh-Bc8hcrG2u39Nag-23" value="" style="rounded=0;whiteSpace=wrap;html=1;" vertex="1" parent="1">
          <mxGeometry y="1764" width="850" height="290" as="geometry" />
        </mxCell>
        <mxCell id="wWfeh-Bc8hcrG2u39Nag-24" value="&lt;h2&gt;Opening Hours&amp;nbsp;&lt;/h2&gt;&lt;p&gt;Lorem ipsum dolor sit amet, consectetur adipisicing elit&lt;/p&gt;&lt;p&gt;sed do eiusmod tempor incididunt ut labore et dolore magna aliqua.&lt;br&gt;&lt;/p&gt;" style="text;html=1;strokeColor=none;fillColor=none;spacing=5;spacingTop=-20;whiteSpace=wrap;overflow=hidden;rounded=0;" vertex="1" parent="1">
          <mxGeometry x="20" y="1794" width="190" height="120" as="geometry" />
        </mxCell>
        <mxCell id="wWfeh-Bc8hcrG2u39Nag-25" value="&lt;h2&gt;Find Us&lt;/h2&gt;&lt;p&gt;Lorem ipsum dolor sit amet, consectetur adipisicing elit&lt;/p&gt;&lt;p&gt;sed do eiusmod tempor incididunt ut labore et dolore magna aliqua.&lt;br&gt;&lt;/p&gt;" style="text;html=1;strokeColor=none;fillColor=none;spacing=5;spacingTop=-20;whiteSpace=wrap;overflow=hidden;rounded=0;" vertex="1" parent="1">
          <mxGeometry x="340" y="1794" width="190" height="120" as="geometry" />
        </mxCell>
        <mxCell id="wWfeh-Bc8hcrG2u39Nag-26" value="&lt;h2&gt;Social Media&lt;/h2&gt;" style="text;html=1;strokeColor=none;fillColor=none;spacing=5;spacingTop=-20;whiteSpace=wrap;overflow=hidden;rounded=0;" vertex="1" parent="1">
          <mxGeometry x="620" y="1794" width="190" height="40" as="geometry" />
        </mxCell>
        <mxCell id="wWfeh-Bc8hcrG2u39Nag-27" value="" style="verticalLabelPosition=bottom;shadow=0;dashed=0;align=center;html=1;verticalAlign=top;strokeWidth=1;shape=mxgraph.mockup.graphics.simpleIcon;strokeColor=#999999;fontSize=13;fontColor=#0066CC;" vertex="1" parent="1">
          <mxGeometry x="800" y="1834" width="30" height="30" as="geometry" />
        </mxCell>
        <mxCell id="wWfeh-Bc8hcrG2u39Nag-28" value="" style="verticalLabelPosition=bottom;shadow=0;dashed=0;align=center;html=1;verticalAlign=top;strokeWidth=1;shape=mxgraph.mockup.graphics.simpleIcon;strokeColor=#999999;fontSize=13;fontColor=#0066CC;" vertex="1" parent="1">
          <mxGeometry x="745" y="1834" width="30" height="30" as="geometry" />
        </mxCell>
        <mxCell id="wWfeh-Bc8hcrG2u39Nag-29" value="" style="verticalLabelPosition=bottom;shadow=0;dashed=0;align=center;html=1;verticalAlign=top;strokeWidth=1;shape=mxgraph.mockup.graphics.simpleIcon;strokeColor=#999999;fontSize=13;fontColor=#0066CC;" vertex="1" parent="1">
          <mxGeometry x="630" y="1834" width="30" height="30" as="geometry" />
        </mxCell>
        <mxCell id="wWfeh-Bc8hcrG2u39Nag-30" value="" style="verticalLabelPosition=bottom;shadow=0;dashed=0;align=center;html=1;verticalAlign=top;strokeWidth=1;shape=mxgraph.mockup.graphics.simpleIcon;strokeColor=#999999;fontSize=13;fontColor=#0066CC;" vertex="1" parent="1">
          <mxGeometry x="686" y="1834" width="30" height="30" as="geometry" />
        </mxCell>
        <mxCell id="wWfeh-Bc8hcrG2u39Nag-31" value="Copyright @ 2023" style="text;html=1;strokeColor=none;fillColor=none;align=center;verticalAlign=middle;whiteSpace=wrap;rounded=0;" vertex="1" parent="1">
          <mxGeometry x="353" y="2014" width="145" height="30" as="geometry" />
        </mxCell>
        <mxCell id="wWfeh-Bc8hcrG2u39Nag-32" value="" style="line;strokeWidth=2;html=1;" vertex="1" parent="1">
          <mxGeometry x="80" y="1964" width="700" height="10" as="geometry" />
        </mxCell>
        <mxCell id="wWfeh-Bc8hcrG2u39Nag-52" value="" style="verticalLabelPosition=bottom;shadow=0;dashed=0;align=center;html=1;verticalAlign=top;strokeWidth=1;shape=mxgraph.mockup.graphics.simpleIcon;strokeColor=#999999;fontSize=13;fontColor=#0066CC;" vertex="1" parent="1">
          <mxGeometry x="430" y="1044" width="420" height="320" as="geometry" />
        </mxCell>
        <mxCell id="wWfeh-Bc8hcrG2u39Nag-53" value="&lt;h1&gt;Heading&lt;/h1&gt;&lt;p&gt;Lorem ipsum dolor sit amet, consectetur adipisicing elit, sed do eiusmod tempor incididunt ut labore et dolore magna aliqua.&lt;/p&gt;" style="text;html=1;strokeColor=none;fillColor=none;spacing=5;spacingTop=-20;whiteSpace=wrap;overflow=hidden;rounded=0;" vertex="1" parent="1">
          <mxGeometry x="60" y="1124" width="280" height="130" as="geometry" />
        </mxCell>
        <mxCell id="wWfeh-Bc8hcrG2u39Nag-54" value="" style="verticalLabelPosition=bottom;shadow=0;dashed=0;align=center;html=1;verticalAlign=top;strokeWidth=1;shape=mxgraph.mockup.graphics.simpleIcon;strokeColor=#999999;fontSize=13;fontColor=#0066CC;" vertex="1" parent="1">
          <mxGeometry x="5" y="1374" width="420" height="320" as="geometry" />
        </mxCell>
        <mxCell id="wWfeh-Bc8hcrG2u39Nag-55" value="&lt;h1&gt;Heading&lt;/h1&gt;&lt;p&gt;Lorem ipsum dolor sit amet, consectetur adipisicing elit, sed do eiusmod tempor incididunt ut labore et dolore magna aliqua.&lt;/p&gt;" style="text;html=1;strokeColor=none;fillColor=none;spacing=5;spacingTop=-20;whiteSpace=wrap;overflow=hidden;rounded=0;" vertex="1" parent="1">
          <mxGeometry x="510" y="1469" width="280" height="130" as="geometry" />
        </mxCell>
      </root>
    </mxGraphModel>
  </diagram>
</mxfile>
